<mxfile host="app.diagrams.net" modified="2023-09-17T11:04:39.061Z" agent="Mozilla/5.0 (Windows NT 10.0; Win64; x64) AppleWebKit/537.36 (KHTML, like Gecko) Chrome/116.0.0.0 Safari/537.36" version="21.7.5" etag="pXEiC9VYLv1L5Ho2zDtv" type="github">
  <diagram name="Page-1" id="RApmpAgbY9HYDTV0xTeX">
    <mxGraphModel>
      <root>
        <mxCell id="0" />
        <mxCell id="1" parent="0" />
      </root>
    </mxGraphModel>
  </diagram>
</mxfile>
